<svg width="72" height="72" viewBox="0 0 72 72" fill="none" xmlns="http://www.w3.org/2000/svg">
<path d="M69.8077 40.7101C62.2437 29.1281 63.0477 17.2561 59.4017 11.6741C55.7557 6.09208 44.8897 -3.53192 19.2157 13.2381C-6.45828 30.0081 0.071717 48.2381 4.08372 54.3761C22.8597 83.1201 83.2057 61.2221 69.8077 40.7101V40.7101Z" fill="#ECEFF2"/>
<path d="M61.9111 42.0327L63.3253 40.6185L66.1538 43.4469L64.7396 44.8611L61.9111 42.0327Z" fill="#C2C8CD"/>
<path d="M53.7803 33.9028L55.1945 32.4886L58.0229 35.3171L56.6087 36.7313L53.7803 33.9028Z" fill="#C2C8CD"/>
<path d="M62.2686 35.3271L65.097 32.4987L66.5112 33.9129L63.6828 36.7414L62.2686 35.3271Z" fill="#C2C8CD"/>
<path d="M37.9795 66.1603C36.3255 66.1603 34.9795 64.8143 34.9795 63.1603C34.9795 61.5063 36.3255 60.1603 37.9795 60.1603C39.6335 60.1603 40.9795 61.5063 40.9795 63.1603C40.9795 64.8143 39.6335 66.1603 37.9795 66.1603ZM37.9795 62.1603C37.4275 62.1603 36.9795 62.6083 36.9795 63.1603C36.9795 63.7123 37.4275 64.1603 37.9795 64.1603C38.5315 64.1603 38.9795 63.7123 38.9795 63.1603C38.9795 62.6083 38.5315 62.1603 37.9795 62.1603Z" fill="#C2C8CD"/>
<path d="M39.06 33.5001H16.5V40.5001V54.5001H23.5H30.46H45.5V40.6001V33.5001H39.06Z" fill="#F3F3F1"/>
<path d="M50.5 40.5999H45.5V54.4999H47.5H54.458H58.5V48.5999C58.5 44.1819 54.918 40.5999 50.5 40.5999Z" fill="#2A6CEA"/>
<path d="M27 58.5001C28.933 58.5001 30.5 56.9331 30.5 55.0001C30.5 53.0671 28.933 51.5001 27 51.5001C25.067 51.5001 23.5 53.0671 23.5 55.0001C23.5 56.9331 25.067 58.5001 27 58.5001Z" fill="#F3F3F1"/>
<path d="M51.001 58.5001C52.934 58.5001 54.501 56.9331 54.501 55.0001C54.501 53.0671 52.934 51.5001 51.001 51.5001C49.068 51.5001 47.501 53.0671 47.501 55.0001C47.501 56.9331 49.068 58.5001 51.001 58.5001Z" fill="#F3F3F1"/>
<path d="M25 36.5C31.3513 36.5 36.5 31.3513 36.5 25C36.5 18.6487 31.3513 13.5 25 13.5C18.6487 13.5 13.5 18.6487 13.5 25C13.5 31.3513 18.6487 36.5 25 36.5Z" fill="#2A6CEA"/>
<path d="M21 36H16V42.3333V55H21V42.3333V36Z" fill="#E1E6EA"/>
<path d="M45.5 40.5999V54.4999H47.5H50V40.5999H45.5Z" fill="#191C1F" fill-opacity="0.1"/>
<path d="M28 55.0001C28 53.9281 28.492 52.9821 29.25 52.3401C28.64 51.8241 27.862 51.5001 27 51.5001C25.068 51.5001 23.5 53.0681 23.5 55.0001C23.5 56.9321 25.068 58.5001 27 58.5001C27.862 58.5001 28.64 58.1761 29.25 57.6601C28.492 57.0181 28 56.0721 28 55.0001Z" fill="#D5DBE1"/>
<path d="M52.001 55.0001C52.001 53.9281 52.493 52.9821 53.251 52.3401C52.641 51.8241 51.863 51.5001 51.001 51.5001C49.069 51.5001 47.501 53.0681 47.501 55.0001C47.501 56.9321 49.069 58.5001 51.001 58.5001C51.863 58.5001 52.641 58.1761 53.251 57.6601C52.493 57.0181 52.001 56.0721 52.001 55.0001Z" fill="#D5DBE1"/>
<path d="M18 25C18 19.42 21.976 14.77 27.25 13.724C26.522 13.578 25.77 13.5 25 13.5C18.648 13.5 13.5 18.648 13.5 25C13.5 31.352 18.648 36.5 25 36.5C25.77 36.5 26.522 36.422 27.25 36.276C21.976 35.23 18 30.58 18 25V25Z" fill="#191C1F" fill-opacity="0.1"/>
<path d="M25.0004 30.5002C24.6164 30.5002 24.2324 30.3542 23.9404 30.0602L17.9404 24.0601L20.0624 21.9381L25.0024 26.8782L29.9424 21.9381L32.0644 24.0601L26.0644 30.0602C25.7684 30.3542 25.3844 30.5002 25.0004 30.5002V30.5002Z" fill="white"/>
<path d="M25.001 56.0001H16.501C15.673 56.0001 15.001 55.3281 15.001 54.5001V38.7801H18.001V53.0001H25.001V56.0001Z" fill="#191C1F"/>
<path d="M45.5009 56.0001H28.9609V53.0001H44.0009V35.0002H38.7809V32.0002H45.5009C46.3289 32.0002 47.0009 32.6722 47.0009 33.5002V54.5001C47.0009 55.3281 46.3289 56.0001 45.5009 56.0001Z" fill="#191C1F"/>
<path d="M58.501 56H52.959V53H57.001V48.6C57.001 45.016 54.085 42.1 50.501 42.1H47.001V53H49.001V56H45.501C44.673 56 44.001 55.328 44.001 54.5V40.6C44.001 39.772 44.673 39.1 45.501 39.1H50.501C55.739 39.1 60.001 43.362 60.001 48.6V54.5C60.001 55.328 59.329 56 58.501 56Z" fill="#191C1F"/>
<path d="M27 60.0001C24.244 60.0001 22 57.7561 22 55.0001C22 52.2441 24.244 50.0001 27 50.0001C29.756 50.0001 32 52.2441 32 55.0001C32 57.7561 29.756 60.0001 27 60.0001ZM27 53.0001C25.898 53.0001 25 53.8981 25 55.0001C25 56.1021 25.898 57.0001 27 57.0001C28.102 57.0001 29 56.1021 29 55.0001C29 53.8981 28.102 53.0001 27 53.0001Z" fill="#191C1F"/>
<path d="M51.001 60.0001C48.245 60.0001 46.001 57.7561 46.001 55.0001C46.001 52.2441 48.245 50.0001 51.001 50.0001C53.757 50.0001 56.001 52.2441 56.001 55.0001C56.001 57.7561 53.757 60.0001 51.001 60.0001ZM51.001 53.0001C49.899 53.0001 49.001 53.8981 49.001 55.0001C49.001 56.1021 49.899 57.0001 51.001 57.0001C52.103 57.0001 53.001 56.1021 53.001 55.0001C53.001 53.8981 52.103 53.0001 51.001 53.0001Z" fill="#191C1F"/>
</svg>
